<svg width="24" height="24" viewBox="0 0 24 24" fill="none" xmlns="http://www.w3.org/2000/svg">
<path d="M22 7.99969H2V9.99969H22V7.99969Z" fill="#3F366C"/>
<path d="M22 4.00031H2V6.0003H22V4.00031Z" fill="#3F366C"/>
<path d="M21 24H3C2.20435 24 1.44129 23.6839 0.87868 23.1213C0.31607 22.5587 0 21.7956 0 21L0 12H8V14C8 14.5304 8.21071 15.0391 8.58579 15.4142C8.96086 15.7893 9.46957 16 10 16H14C14.5304 16 15.0391 15.7893 15.4142 15.4142C15.7893 15.0391 16 14.5304 16 14V12H24V21C24 21.7956 23.6839 22.5587 23.1213 23.1213C22.5587 23.6839 21.7956 24 21 24Z" fill="#3F366C"/>
<path d="M22 7.99969H2V9.99969H22V7.99969Z" fill="#3F366C"/>
<path d="M22 4.00031H2V6.0003H22V4.00031Z" fill="#3F366C"/>
</svg>
