<svg width="24" height="24" viewBox="0 0 24 24" fill="none" xmlns="http://www.w3.org/2000/svg">
<path d="M17.7914 7.21208C17.347 5.30137 16.216 3.62053 14.6135 2.48907C13.011 1.35761 11.0485 0.854401 9.09929 1.0751C7.15003 1.2958 5.34981 2.22502 4.04081 3.68613C2.73181 5.14724 2.00529 7.03838 1.99935 9.00008C1.99849 10.2785 2.30729 11.5381 2.89935 12.6711C1.82048 13.2492 0.96575 14.1713 0.47097 15.2909C-0.0238111 16.4104 -0.130265 17.6632 0.168522 18.8502C0.467309 20.0372 1.1542 21.0903 2.12005 21.8422C3.08591 22.5941 4.27534 23.0016 5.49935 23.0001H15.9994C17.9584 22.991 19.8461 22.2633 21.3044 20.9551C22.7627 19.6469 23.6902 17.849 23.9112 15.9024C24.1321 13.9558 23.6311 11.9958 22.5031 10.394C21.3751 8.79221 19.6986 7.66002 17.7914 7.21208Z" fill="#3F366C"/>
</svg>
