<svg width="24" height="24" viewBox="0 0 24 24" fill="none" xmlns="http://www.w3.org/2000/svg">
<g clip-path="url(#clip0_89_1235)">
<path d="M12.8361 0.0278035C11.1217 -0.0921554 9.40148 0.157549 7.7919 0.760021C6.18233 1.36249 4.72095 2.30367 3.50664 3.51988C2.29233 4.73608 1.35343 6.19893 0.75347 7.80945C0.153511 9.41996 -0.093509 11.1406 0.0291251 12.8548C0.470125 19.2078 6.08213 23.9998 13.0831 23.9998H19.0001C20.3257 23.9982 21.5966 23.4709 22.5339 22.5336C23.4712 21.5962 23.9985 20.3254 24.0001 18.9998V12.3398C24.0374 9.25725 22.9072 6.2747 20.8364 3.99098C18.7657 1.70725 15.9076 0.291441 12.8361 0.0278035ZM18.7001 9.7118L11.9071 16.4188C11.5323 16.7922 11.0247 17.0019 10.4956 17.0019C9.96652 17.0019 9.45898 16.7922 9.08413 16.4188L5.30013 12.7148C5.1105 12.5292 5.00238 12.2758 4.99957 12.0104C4.99676 11.745 5.09947 11.4894 5.28513 11.2998C5.47078 11.1102 5.72415 11.0021 5.98952 10.9992C6.25488 10.9964 6.5105 11.0992 6.70013 11.2848L10.4931 14.9918L17.2991 8.2918C17.4911 8.12293 17.7404 8.03397 17.9959 8.04321C18.2513 8.05245 18.4936 8.15919 18.6728 8.34149C18.852 8.52379 18.9546 8.76781 18.9595 9.02341C18.9644 9.27901 18.8712 9.52677 18.6991 9.7158L18.7001 9.7118Z" fill="#3F366C"/>
</g>
<defs>
<clipPath id="clip0_89_1235">
<rect width="24" height="24" fill="white"/>
</clipPath>
</defs>
</svg>
