<svg width="24" height="24" viewBox="0 0 24 24" fill="none" xmlns="http://www.w3.org/2000/svg">
<g clip-path="url(#clip0_89_1463)">
<path d="M15.7461 18.2539C15.7461 16.7539 14.7151 14.7039 12.8461 12.4809C12.7427 12.3575 12.6131 12.2586 12.4668 12.1913C12.3205 12.124 12.1611 12.0901 12.0001 12.0919C11.8379 12.0911 11.6775 12.1257 11.53 12.1932C11.3825 12.2608 11.2515 12.3596 11.1461 12.4829C9.10009 14.8799 8.10009 16.9999 8.27309 18.6249C8.34117 19.1387 8.51736 19.6322 8.79004 20.0729C9.06273 20.5137 9.42572 20.8916 9.85509 21.1819C10.4625 21.6799 11.2153 21.967 12.0001 21.9999C12.9933 21.9988 13.9455 21.6038 14.6477 20.9015C15.35 20.1992 15.745 19.247 15.7461 18.2539Z" fill="#B3A3FF"/>
<path d="M16.629 2.90033C15.843 2.23233 15.018 1.53233 14.178 0.768328C13.8595 0.47916 13.4817 0.263101 13.0709 0.135276C12.6601 0.00745137 12.2264 -0.0290497 11.8 0.0283279C11.3868 0.0830544 10.9907 0.227847 10.6396 0.452479C10.2884 0.67711 9.99093 0.9761 9.76804 1.32833C8.57643 3.32016 7.73366 5.50082 7.27604 7.77633C7.09701 7.51708 6.93788 7.24463 6.80004 6.96133C6.6585 6.66311 6.44535 6.40457 6.17959 6.20876C5.91384 6.01295 5.60375 5.88596 5.27699 5.83913C4.95023 5.79229 4.61696 5.82706 4.3069 5.94034C3.99685 6.05362 3.71965 6.24188 3.50004 6.48833C1.82335 8.20272 0.893906 10.5114 0.915043 12.9093C0.891855 15.3588 1.68847 17.7456 3.17816 19.6901C4.66784 21.6346 6.76502 23.0251 9.13604 23.6403C10.0439 23.8688 10.9759 23.9869 11.912 23.9923C10.7158 23.9477 9.56596 23.5177 8.63404 22.7663C7.98845 22.312 7.44562 21.7269 7.04077 21.0492C6.63591 20.3715 6.3781 19.6162 6.28404 18.8323C6.05404 16.6223 7.17704 14.0493 9.62204 11.1853C9.91536 10.8415 10.28 10.5656 10.6906 10.3769C11.1013 10.1881 11.5481 10.091 12 10.0923H12.01C12.4607 10.0927 12.9058 10.1913 13.3144 10.3813C13.723 10.5713 14.0853 10.848 14.376 11.1923C15.914 13.0193 17.749 15.7273 17.749 18.2533C17.7468 19.709 17.1925 21.1097 16.1978 22.1726C15.2032 23.2355 13.8424 23.8816 12.39 23.9803C15.2617 23.8878 17.9845 22.681 19.9818 20.6156C21.9791 18.5503 23.0939 15.7885 23.09 12.9153C23.085 8.38533 20.093 5.84533 16.629 2.90033Z" fill="#B3A3FF"/>
</g>
<defs>
<clipPath id="clip0_89_1463">
<rect width="24" height="24" fill="white"/>
</clipPath>
</defs>
</svg>
