<svg width="24" height="24" viewBox="0 0 24 24" fill="none" xmlns="http://www.w3.org/2000/svg">
<g clip-path="url(#clip0_89_1457)">
<path d="M9 12C12.3137 12 15 9.31371 15 6C15 2.68629 12.3137 0 9 0C5.68629 0 3 2.68629 3 6C3 9.31371 5.68629 12 9 12Z" fill="#B3A3FF"/>
<path d="M9 14C6.61395 14.0029 4.32645 14.9521 2.63925 16.6392C0.952057 18.3264 0.00291096 20.6139 0 23C0 23.2652 0.105357 23.5195 0.292893 23.7071C0.48043 23.8946 0.734784 24 1 24H17C17.2652 24 17.5196 23.8946 17.7071 23.7071C17.8946 23.5195 18 23.2652 18 23C17.9971 20.6139 17.0479 18.3264 15.3607 16.6392C13.6735 14.9521 11.3861 14.0029 9 14Z" fill="#B3A3FF"/>
<path d="M21.9997 7.875C21.4432 7.90272 20.9203 8.14977 20.5455 8.56207C20.1707 8.97437 19.9744 9.51836 19.9997 10.075C20.025 9.51836 19.8288 8.97437 19.4539 8.56207C19.0791 8.14977 18.5562 7.90272 17.9997 7.875C17.4432 7.90272 16.9203 8.14977 16.5455 8.56207C16.1707 8.97437 15.9744 9.51836 15.9997 10.075C15.9997 11.805 18.2557 13.832 19.3797 14.734C19.5557 14.8749 19.7743 14.9516 19.9997 14.9516C20.2251 14.9516 20.4438 14.8749 20.6197 14.734C21.7437 13.834 23.9997 11.805 23.9997 10.075C24.025 9.51836 23.8287 8.97437 23.4539 8.56207C23.0791 8.14977 22.5562 7.90272 21.9997 7.875Z" fill="#B3A3FF"/>
</g>
<defs>
<clipPath id="clip0_89_1457">
<rect width="24" height="24" fill="white"/>
</clipPath>
</defs>
</svg>
